<?xml version="1.0" encoding="utf-8"?>
<!-- Generator: Adobe Illustrator 16.0.0, SVG Export Plug-In . SVG Version: 6.00 Build 0)  -->
<!DOCTYPE svg PUBLIC "-//W3C//DTD SVG 1.1//EN" "http://www.w3.org/Graphics/SVG/1.1/DTD/svg11.dtd">
<svg version="1.1" id="Layer_1" xmlns="http://www.w3.org/2000/svg" xmlns:xlink="http://www.w3.org/1999/xlink" x="0px" y="0px"
	 width="500.845px" height="320px" viewBox="194.5 274.5 500.845 320" enable-background="new 194.5 274.5 500.845 320"
	 xml:space="preserve">
<g id="Layer_3">
</g>
<g id="Layer_2">
	<g>
		<g>
			<path fill="#002D40" d="M362.994,392.818c0.733,3.662,2.052,7.032,3.225,10.549c-1.025,1.903-1.318,4.249-1.318,4.835
				c0,1.465,1.904,5.859,1.904,9.521c0,0.88-0.146,1.758-0.146,2.637c0,0.881,0.146,1.904,0.293,2.784c-0.146,0-0.293,0-0.438,0.146
				c0.146-0.146,0.146-0.293,0.293-0.293c0.438,0.438,0.586,0.879,0.586,1.317c0,0.293,0,0.732-0.293,1.024
				c-1.024,1.466-1.317,8.059-2.783,8.059c0.146,0.146,0.146,0.293,0.146,0.439c0,0-0.146-0.146-0.293-0.146
				c0.146-0.146,0.293-0.146,0.293-0.146c-0.146,2.783-1.759,14.356-8.352,22.708c-3.954,10.107-17.872,17.287-27.834,17.287
				c-4.396,0-8.498-1.025-12.601-3.076c-3.224-1.611-6.007-5.715-9.669-8.061c-3.223-0.586-6.446-12.013-9.815-14.942
				c0.146,0.146-3.369-7.91-3.369-10.841c0-1.024,0.293-2.052,0.293-2.931c0-1.903-1.026-4.249-1.026-6.738
				c0-0.732,0.146-1.317,0.146-2.052c0-1.758-0.293-3.516-0.293-5.273c0-6.739,0.439-22.708,8.791-37.212
				c4.103-7.179,7.325-16.262,16.555-16.262c1.171,0,2.49,0.439,3.663,0.439c3.369,0,8.496-2.345,13.038-2.345
				c4.834,0,8.498,0.88,12.745,2.932c1.319,0.732,3.077,4.396,4.982,4.688c7.179,6.445,3.953,6.006,6.299,10.548
				C358.014,383.882,362.116,388.569,362.994,392.818z M335.014,461.234c1.171,0,2.343-0.293,3.516-0.879
				c12.599-6.006,21.828-25.197,21.828-40.141c0-4.98,0-11.279-1.61-15.821c-0.88-2.492-0.146-5.274-1.466-7.619
				c-0.146-0.146-0.146-0.293-0.146-0.438c0-0.586,0.293-1.024,0.293-1.464c0-4.836-7.618-11.722-9.815-16.557
				c-0.438-0.878-3.81-2.637-4.98-4.101c-1.904-2.345-4.98-1.612-6.739-3.37c-0.585-0.439-4.103-1.611-6.3-1.611
				c-1.464,0-10.549,10.987-12.014,15.236c-2.052,6.007-6.445,12.745-7.179,18.312c-0.586,4.249-3.076,8.79-3.076,13.185
				c0,0.88,0.586,1.612,0.586,2.346c0,0.731-0.146,1.464-0.146,2.05c0,2.932,1.171,5.715,1.171,8.498
				c0,1.024-0.439,1.759-0.439,2.49c0,1.758,2.345,3.369,2.345,5.714c0,0.586-0.293,1.172-0.293,1.758
				c0,0.438,2.344,3.956,3.075,5.422c2.49,5.419,7.18,9.082,10.402,13.917c-0.146,0.145-0.146,0.145-0.293,0.293
				c0-0.146-0.146-0.146-0.146-0.293c0.146,0,0.146,0.145,0.293,0.145C326.662,458.305,332.229,461.234,335.014,461.234z
				 M311.278,447.317c0-0.146,0-0.293-0.146-0.293c-0.146,0-0.293,0-0.293,0.146c0,0.146,0.146,0.146,0.146,0.293
				C311.133,447.463,311.278,447.317,311.278,447.317z M320.216,456.547l-0.293,0.146c0,0.146,0.146,0.293,0.293,0.293
				c0,0,0.146,0,0.293-0.146c0,0.586,0.146,0.586,0.293,0.732c0.146-0.146,0.146-0.146,0.146-0.293s-0.146-0.146-0.439-0.293
				C320.362,456.84,320.362,456.693,320.216,456.547z M357.867,382.417c0-0.146,0.146-0.293,0.146-0.293v0.439
				C358.014,382.417,357.867,382.417,357.867,382.417z M361.97,396.773c0,0.293,0,0.587,0.293,0.587
				c0.292,0,0.438-0.146,0.585-0.294C362.555,396.92,362.263,396.92,361.97,396.773z"/>
			<path fill="#002D40" d="M397.565,437.502c0,3.662-2.051,3.955-2.051,6.445c0,0.587,0.146,1.759,0.585,1.759
				c0.146,0,0.438-0.439,0.88-0.439c0.438,0,0.586,3.516,0.586,5.862c0,4.979-2.344,5.857-2.344,10.105
				c0,1.762-0.146,2.932-0.146,4.836c0,2.783,0.586,5.566,4.102,5.566c0.146,0,0.295,0,0.44-0.145c0.146,2.195,0,5.271,0.878,5.42
				c2.198,0,7.031-20.805,10.696-27.834c0.438,0.146,0.729,0.146,1.023,0.146c1.467,0,0.439-3.371,1.467-3.371
				c0.729,0,0.438,5.568,1.464,5.568c1.025-1.027,1.025-4.98,1.025-7.62c0-1.171-0.293-2.49-0.293-3.662
				c0-3.81,1.173-9.229,4.688-11.134c1.172-0.586,1.464-4.688,1.902-6.594c0.439-2.49,2.346-4.396,3.079-6.887
				c0.292-1.316,5.272-5.42,7.615-5.42c0.879,0,2.347,0.439,2.347,1.172c0,3.37-3.519,6.887-5.862,9.229
				c-3.369,2.491-5.712,12.161-7.179,12.161c-0.586,0-0.73-1.026-1.464-1.026c-1.319,0-1.026,13.332-1.466,18.751
				c-0.586,0.439-1.171,0.734-1.903,1.173c-0.44,5.422,0.293,10.986-0.879,16.408c-0.586,0-1.319-0.145-2.054-0.145
				c-0.145,0.293-0.293,0.586-0.293,0.879c0,0.729,0.441,1.465,0.441,2.344c0,0.732-0.148,1.465-0.148,2.197
				c0,0.438,0.148,1.023,0.148,1.609c-0.148,5.131-2.491,8.938-3.81,13.48c-1.173,3.809-4.688,3.809-5.423,5.859
				c-0.438,1.316-3.222,3.66-3.368,3.66c-0.732,0-1.318-1.021-2.197-1.021c-1.025,0-2.197,0.729-3.225,0.729
				c-6.444-0.729-6.444-12.742-9.669-15.818c-0.438-0.441-0.586-1.469-0.586-2.785c0-6.885-2.344-4.98-2.344-13.623
				c0-2.492,0.146-5.275,0.146-7.18c0-2.49-0.879-4.541-0.879-6.887c0-3.371,0.879-6.739,0.879-10.109c0-1.464,0-2.783-0.146-4.249
				c0-2.783,2.49-0.879,2.49-2.638c0-0.879-0.146-1.757-0.146-2.637c0.146-2.93,0.293-5.858,0.293-8.791
				c0-3.516-1.61-6.444-1.61-9.669c0-5.272,1.172-9.669,2.051-14.649c0.146-0.292,0.294-0.731,0.294-1.318
				c0-1.318-0.44-2.638-0.44-4.102c0-1.319,0.881-2.49,0.881-3.811c0-1.024-0.294-2.051-0.294-3.223
				c0-3.224,1.025-7.471,1.025-10.402c0-1.171-0.146-2.344-0.146-3.369c0-2.344,0.146-4.541,0.146-6.739
				c0-2.051-0.879-3.516-0.879-5.127c0-3.224,4.102-3.37,6.738-3.37c4.836,0,5.273,1.025,5.273,4.981
				c0,7.618-1.758,18.02-1.758,24.319c0,0.732,0.586,1.465,0.586,2.344c0,0.146-0.146,0.293-0.146,0.293
				c-1.025,1.905-0.586,3.956-0.879,6.008c0,0.878,0.586,1.464,0.586,2.344c0,0.587-0.439,1.172-0.439,1.61
				c0,0.733,0.439,1.319,0.439,2.052c0,1.174-0.586,2.931-0.586,4.104c0,1.171,0.586,2.344,0.586,3.515
				c0,2.638-1.173,5.275-1.173,7.474c0,0.879,0.587,1.758,0.587,2.638c0,1.171-1.319,2.344-1.319,3.515
				c0,1.173,1.319,1.905,1.319,3.371c-0.439,3.661-0.881,4.834-1.319,7.617c0,0,0-0.146,0-0.293
				C397.419,433.985,397.565,435.304,397.565,437.502z M388.482,447.61c0-0.879-1.173-1.61-1.905-1.61
				c-0.73,0-1.023,0.731-1.023,1.903c0,0.439,0.146,1.027,0.438,1.613C386.87,449.077,388.482,448.93,388.482,447.61z
				 M393.755,455.521c-0.146,0.293-0.293,0.586-0.293,0.879c0,0.146,0,0.293,0.146,0.439c0.146-0.146,0.293-0.439,0.439-0.586
				C394.048,455.814,394.048,455.814,393.755,455.521z M393.755,441.897l0.146-0.294l-0.293-0.146L393.755,441.897z
				 M397.712,478.668c0,0.439,0.146,0.734,0.439,1.027c0.146-0.588,0.439-0.881,0.586-1.467c0-0.146-0.293-0.586-0.439-0.732
				C397.712,477.496,397.712,478.229,397.712,478.668z M408.994,458.305c-0.147,1.465-0.147,2.93-0.147,4.396
				c0,0,0.147,0.145,0.293,0.295c0.293,0,0.293-1.027,0.293-2.348c0-0.73,0-1.609,0-2.195L408.994,458.305z M415.88,455.814
				c0-0.293-0.147-0.438-0.44-0.438c-0.44,0-0.585,0.293-0.733,0.73c0,0.293,0.293,0.439,0.586,0.439
				C415.584,456.254,415.88,456.107,415.88,455.814z M417.781,446.731c0,0.293,0.148,0.586,0.293,0.732
				c0-0.146,0.147-0.293,0.147-0.439c0-0.584-0.147-1.024-0.147-2.489C417.93,445.852,417.781,446.292,417.781,446.731z
				 M423.496,424.609c-0.146,0-0.293,0.146-0.293,0.293c0,0.147,0.147,0.292,0.147,0.438c0.146,0,0.293,0,0.438-0.146
				C423.789,425.049,423.644,424.609,423.496,424.609z"/>
			<path fill="#002D40" d="M465.248,474.42c-1.171,1.318-2.346,2.344-3.224,3.223l0.878,0.732c1.175-0.293,2.346-1.318,4.103-2.197
				c-1.757,3.225-1.757,3.225-4.979,3.812c0.44,1.607,1.319,1.902,2.49,1.902c0.732,0,1.464-0.145,2.196-0.145
				c0.733,0,1.319,0.145,1.905,0.438c-1.612,3.369-1.319,6.885-4.103,8.789c-2.783-0.438-5.126-0.879-7.031-1.316
				c-0.44,0.438-0.44,0.438-0.44,0.879c1.026,0,1.759,0.438,2.783,1.023c-1.024,0.293-1.757,1.318-3.224,2.199
				c2.197,0.439,3.224,1.023,5.129,1.023c-0.879,0.732-1.905,1.467-3.369,1.613c0,1.023,0.146,2.051,0.146,3.076
				c0,2.637-3.223,2.93-3.223,4.395c-1.318,2.637-2.931,3.955-4.836,3.955c-1.318,0-2.928-0.879-4.54-2.49
				c0.438-0.879,1.612-1.465,2.343-1.758c-0.586-0.732-1.025-1.025-1.465-1.025c-1.024,0-1.757,1.318-3.224,1.318
				c-7.323-7.324-10.106-10.988-10.106-17.434c0-3.955,1.316-8.352,3.369-13.625c4.103-5.568,5.273-15.676,9.521-20.217
				c4.542-3.958,3.957-8.939,7.764-12.455c0.588-0.88,1.026-1.758,1.026-2.49c0-2.489-2.783-4.396-4.981-4.396
				c-2.05,0-4.102,1.759-6.152,1.759c-6.3,0-13.333-2.785-16.994-8.352c-2.929-4.396-2.929-12.014-4.688-12.893
				c1.026-4.981,0.878-10.108,2.931-13.479c0.293-1.319,2.197-1.612,3.518-2.345c-0.881-1.025-1.319-2.052-1.319-3.075
				c0-2.347,8.059-11.868,13.917-14.944c2.49-1.317,5.273-2.49,8.059-2.49c4.248,0,15.529,4.688,15.529,10.255
				c0,4.102-4.396,11.28-4.396,15.089c0,2.053,0.438,4.104,0.438,6.007c0,0.587-0.146,1.173-0.146,1.759
				c-5.714-0.439-8.497-4.104-8.497-9.815c0-1.611,0.293-3.223,0.293-4.835c0-2.489-0.293-5.127-0.293-7.91
				c-6.738,3.954-13.771,9.962-16.263,16.555c-1.318,3.516-4.103,8.057-4.103,11.426c1.76,7.033-0.293,11.574,6.593,11.574
				c2.783,0,5.566-1.025,8.79-1.025c3.518,0,6.886,0.439,10.109,2.198c0.879,0.146,1.758,0.438,2.636,0.438
				c0.586,0,1.172-0.146,1.612-0.438c2.346-1.612,5.129-2.93,7.912-2.93c1.318,0,2.636,0.292,3.954,0.878
				c1.025,0,7.179-8.497,7.179-8.938c0-0.731-1.171-1.759-1.171-2.637c0-0.586,0.293-1.318,0.586-1.612
				c2.783-6.151,10.109-13.331,17.288-13.331c3.369,0,6.004,1.464,9.083,3.076c3.222,1.759,5.565,7.325,5.565,10.255
				c0,4.104-6.446,13.625-10.987,19.339c-2.783,3.517-6.887,5.714-11.722,5.86c-0.73,1.611-1.172,3.663-1.172,5.86
				c0,5.712,2.64,12.598,6.593,15.967c2.347-1.611,3.955-4.248,5.274-6.006c2.345-4.25,5.128-7.766,7.471-12.16
				c0.733-1.173,3.079-1.612,3.079-3.956c0-0.146,0-0.293,0-0.586c3.808,0,3.808-7.325,10.107-7.325
				c2.345,0,5.272,1.611,5.272,3.809c0,2.345-4.688,2.784-4.688,7.18c-1.023-0.293-1.464-0.586-2.05-0.586
				c-0.733,0-2.197,0.293-2.197,1.025c0,0.439,0.732,1.171,0.732,1.903c0,0.733-0.439,1.466-0.732,1.759
				c-1.757,2.783-1.757,6.007-2.783,9.23c-0.44-0.586-0.879-1.32-1.76-2.197c-0.438,1.904-0.731,3.223-0.731,5.127
				c0,1.172,0.293,3.223,0.293,5.127c-1.903,0-2.782,0.441-4.25,0.441c0,4.98-2.636,7.471-7.764,7.91
				c-1.319,0-2.929,0.586-4.396,0.586c-2.637,0-1.466-4.689-3.369-4.689c-0.879,0-1.905,1.32-2.49,1.32
				c-1.465,0-3.955-2.637-3.955-4.25c0-0.877,0.146-1.904,1.172-3.223c-1.465,0-3.225,1.025-4.396,1.025
				c-1.466,0-0.586-2.051-1.757-3.223c-0.733-1.467-2.054-2.49-2.491-2.932c-1.026-3.078-3.078-5.567-3.078-8.498
				c0-0.877,0.588-1.757,0.588-2.489c0-1.76-1.174-2.783-2.638-3.811c0.585-1.316,0.878-2.344,0.878-3.369
				c0-0.88-0.293-1.759-0.878-2.637c-4.248,1.903-5.567,3.662-5.567,7.765c0.438,3.955,0.438,7.471,0.438,11.72
				c0,0.732-0.731,2.783-1.172,4.248c-0.73,0.146-2.637,0.146-2.49,1.318c1.318,0.439,3.224,0.879,4.98,1.758
				c-2.49,2.93-6.886,0.439-9.67,3.223c0-0.439,0.148-1.025,0.148-1.465c0-2.93-1.319-5.42-1.612-8.789
				c-3.076,2.93-3.517,8.498-8.791,9.229c0,0.732,0.148,1.32,0.148,2.053c0,9.082-7.033,18.021-7.033,25.639
				c0,4.98,3.954,7.619,8.936,7.619c0.882,0,1.904-1.025,1.904-2.348c-0.293-0.877-0.438-1.609-0.438-2.344
				c0-2.783,1.611-4.834,3.515-6.006c1.026-3.662,3.079-7.033,3.079-8.205c0-0.438-1.026-1.023-1.026-1.611
				c0-0.73,2.05-3.369,2.05-5.713c0-1.172-0.293-2.344-1.315-3.518c3.222-1.316,5.858-2.637,9.229-4.541
				c0.147,0.734,0.293,1.32,0.293,2.051c0,2.637-1.465,5.568-4.103,7.619c0-0.732,0.879-1.758,0.879-2.49
				c0-0.438-0.293-0.879-1.172-1.023c-0.438,0.879-0.879,2.344-1.612,3.223h2.348V474.42z M461.438,483.502
				c0.293,2.346,0.293,3.957,1.905,3.957c0.732,0,1.317-0.586,1.903-1.904C464.077,485.115,462.902,484.529,461.438,483.502z
				 M489.86,429.443c2.197-1.903,8.35-4.834,8.35-6.444c-0.146-0.147-0.146-0.294-0.146-0.587c0-1.904,4.834-5.859,4.834-9.229
				c0-1.609-0.586-3.516-1.758-5.858c-5.128,0-7.765,9.229-9.376,14.211c-0.878,2.489-1.904,4.688-2.783,7.324
				C489.421,428.858,489.421,428.858,489.86,429.443z"/>
			<path fill="#002D40" d="M568.673,484.383c-0.732,0-1.317,0.293-2.489,1.025c-7.766,0-10.402-10.842-10.695-18.607
				c0-1.463,0.147-2.93,0.147-4.248c0-2.051-0.586-3.809-0.586-5.713c0-2.344,2.636-6.447,2.636-7.033
				c0-0.584-0.146-1.024-0.146-1.611c0-0.438,0.293-1.024,0.293-1.465c0-0.879-1.465-1.464-1.465-2.637
				c0-1.61,0.879-3.516,1.172-5.273c0-0.879-0.879-1.317-0.879-2.052c0-0.293,0.293-0.586,0.586-0.879
				c1.757-1.172,1.904-4.688,1.904-5.859c0-2.344-0.588-4.688-0.588-7.031c0-1.318,0.588-2.932,0.588-4.248
				c0-0.293-0.147-1.173-0.44-1.173c-1.317,0-9.669,7.912-10.108,11.572c-0.293,2.491-4.688,9.23-6.738,12.308
				c-4.395,6.739-8.057,13.186-16.555,13.186c-5.714,0-6.301-8.059-6.301-14.504c0-4.103,0.294-6.886,0.294-10.401
				c0-1.172-0.587-2.345-0.587-3.517c0-0.88,0.733-1.61,0.733-2.637c0-0.733-0.146-1.466-0.146-2.344
				c0-4.981,2.053-10.55,2.053-15.678c0-2.051,4.54-3.81,7.179-3.81c4.396,0,4.54,3.663,4.54,7.032
				c0,6.446-0.293,12.894-0.586,19.34c-0.44,2.783-2.783,6.006-2.783,8.937c0,0.439,0.293,0.732,0.586,1.172
				c3.661,0,8.497-11.28,14.356-15.384c1.611-1.757,3.076-4.54,4.836-6.592c2.343-2.784,7.91-5.128,8.644-6.3
				c1.611-2.344,4.688-2.783,7.179-2.783c6.737,0,6.151,5.127,6.151,19.484c0,2.93-3.076,3.956-3.076,6.445
				c0,0.439,0.293,1.025,0.293,1.611c0,0.587-0.438,1.465-0.438,2.051c0,1.026,1.609,2.197,1.609,2.933
				c0,0.878-1.609,1.316-2.344,1.902c0,0.88,0.586,2.052,0.586,2.345c0,0.146,0,0.146,0,0.146
				c-1.172,2.051-1.318,6.446-1.318,11.135c0,4.395-0.293,12.893,1.171,12.893c1.905,0,7.326-13.625,9.672-18.46
				c0.438-1.318,2.343-1.172,2.343-2.197c0.147-2.05,0.44-3.222,1.905-4.833c2.783-2.93,3.661-9.816,9.376-9.816
				c1.026,0,1.757,0.587,1.757,1.611c0,2.638-4.833,9.816-6.738,10.988c-0.878,1.317,0.146,3.517-1.171,4.541
				c-2.346,2.346-1.904,5.274-3.665,7.18c-0.145,0.146-2.05,7.91-2.05,7.764c0,0.881,0.293,1.904,0.293,2.785
				c0,2.93-2.931,4.688-2.931,6.592c0,1.611,0,2.637-1.465,3.369c-0.44,0.293-2.197,5.129-4.396,7.033
				C569.846,484.529,569.114,484.383,568.673,484.383z M559.884,439.993c0,0.146-0.146,0.146-0.293,0.293
				c0,0.438,0,0.586,0.293,0.879c0-0.293,0.146-0.439,0.293-0.732C560.177,440.286,560.031,440.138,559.884,439.993z
				 M565.305,463.287h0.293l-0.147-0.441L565.305,463.287z"/>
		</g>
		<path fill="#002D40" d="M274.897,569.482c4.657,0,11.106,1.074,11.106,5.73c0,8.6-8.599,12.182-17.196,12.182
			c-21.854-1.074-62.338-4.299-62.338-24.004c0-3.938,2.508-7.881,2.508-11.822c0-1.434-0.358-2.508-0.358-3.939
			c0-3.227,1.434-6.09,1.434-8.955c0-2.867-2.866-6.449-2.866-10.031c0-2.15,1.791-4.301,1.791-6.809
			c0-2.148-1.791-4.301-1.791-6.092c0-5.016,3.582-9.674,3.582-15.764c0-2.508-0.716-5.016-0.716-7.521
			c0-5.373,1.433-10.391,1.433-15.404c0-1.076-0.358-2.15-0.358-3.584c0-2.508,2.508-4.656,2.508-7.523
			c0-19.346,3.225-36.542,5.016-55.888c0-5.731,7.523-9.673,7.523-13.972c0-5.017-5.016-5.732-5.016-8.599
			c0-2.508,5.016-6.091,5.016-10.031c0-3.583-2.508-7.165-2.508-10.748c0-0.716,0-1.791,0.358-2.508
			c3.583-22.929,6.091-45.857,7.165-70.577c0-1.075,0.358-2.866,1.075-3.94c2.149-2.15,25.437-12.182,31.886-12.182
			c5.731,0,23.286,4.658,23.286,11.106c0,4.657-17.913,7.882-29.377,10.39c-13.973,4.657-10.39,25.437-13.256,44.065
			c-2.508,8.957-4.299,16.48-5.016,24.721c-1.075,11.464-4.657,23.287-4.657,33.318c0,11.105-5.016,15.764-5.016,24.361
			c0,7.522-2.508,15.764-2.508,22.928c0,1.791,0.358,3.941,0.358,5.375c0,4.299-2.149,7.523-2.149,11.105
			c0,1.074,0,1.791,0.357,2.508c0,3.941-3.224,8.24-3.224,13.613c0,6.809-0.358,14.332-0.358,21.139
			c0,20.062,1.791,39.408,4.657,58.396c1.791,7.881,28.303,9.314,39.051,10.031C269.523,570.197,272.389,569.482,274.897,569.482z"
			/>
		<path fill="#002D40" d="M651.058,467.914c-0.358-1.791-0.717-3.225-0.717-4.656c0-3.584,0.717-7.166,0.717-10.391
			c0-2.508-0.358-5.016-0.358-7.524c0-3.938,0.358-8.239,0.717-12.18c0-2.508-0.357-4.658-0.357-7.166
			c0-3.94,2.866-7.523,2.866-11.105c0-3.94-2.509-9.313-2.509-13.973c0-2.865,0.718-5.732,0.718-8.24
			c0-3.94-1.435-7.523-1.435-11.822c0-1.791,0.358-3.225,0.358-4.657c0-7.165-2.149-14.331-2.149-21.495
			c0-5.732,0.358-11.465,0.358-17.197c0-9.315-0.358-18.987-1.075-28.303c0-10.747-56.247,4.657-56.247-22.57
			c0-2.149,1.075-3.94,2.866-3.94c0.357,0,0.717,0.357,1.434,0.357c10.747,5.016,29.02,8.599,49.081,8.599
			c3.583,0,7.165-1.075,10.748-1.075c7.882,1.075,14.33,4.3,20.779,7.883c6.807,4.299,7.165,11.822,7.165,19.346
			c0,6.807-3.583,12.539-3.583,19.346c0,4.658-0.357,7.523-0.357,10.748c0,2.149,0,4.657,0.357,6.808
			c0,3.582-2.865,6.807-2.865,9.672c0,0,2.865,10.031,2.865,24.362c0,10.39-4.657,23.287-4.657,42.991
			c1.075,9.314,2.508,20.42,2.508,29.377c0,12.182-3.224,22.93-3.224,29.736c0,3.939,3.224,12.539,3.224,19.346
			c0,13.613,0,26.869,2.866,40.482c0,3.584-0.717,6.092-0.717,8.957c0,5.016,3.583,9.674,3.583,12.896
			c0,3.939-3.94,9.674-7.523,9.674c-12.181-0.719-22.929-5.018-34.393-5.018c-9.315,0-20.779,1.791-30.812,1.791
			c-5.731,0-17.556-5.016-17.556-12.18c0-8.24,26.153-9.314,37.618-9.314c2.148,0,19.346-4.658,19.346-9.314
			c0-3.582,0.358-6.809,0.358-10.391c0-3.939-1.075-7.881-1.075-11.82c0-11.107,3.583-17.914,3.583-24.361
			c0-5.016-2.866-10.031-2.866-15.047c0-1.076,0.358-1.793,0.358-2.867c0-1.791-2.509-6.09-3.94-8.957
			C648.55,472.213,651.058,469.348,651.058,467.914z"/>
	</g>
</g>
</svg>
